<svg width="32" height="35" viewBox="0 0 32 35" fill="none" xmlns="http://www.w3.org/2000/svg">
<path d="M8 24V10C8 9.46957 8.21071 8.96086 8.58579 8.58579C8.96086 8.21071 9.46957 8 10 8H23.4C23.5591 8 23.7117 8.06321 23.8243 8.17574C23.9368 8.28826 24 8.44087 24 8.6V21.714" stroke="white" stroke-width="2" stroke-linecap="round"/>
<path d="M19 22V27L21.5 25.4L24 27V22" stroke="white" stroke-width="2" stroke-linecap="round" stroke-linejoin="round"/>
<path d="M10 22H24" stroke="white" stroke-width="2" stroke-linecap="round"/>
<path d="M10 22C9.46957 22 8.96086 22.2107 8.58579 22.5858C8.21071 22.9609 8 23.4696 8 24C8 24.5304 8.21071 25.0391 8.58579 25.4142C8.96086 25.7893 9.46957 26 10 26H15.5" stroke="white" stroke-width="2" stroke-linecap="round" stroke-linejoin="round"/>
</svg>
